<?xml version="1.0" standalone="no"?>
<!DOCTYPE svg PUBLIC "-//W3C//DTD SVG 20010904//EN"
 "http://www.w3.org/TR/2001/REC-SVG-20010904/DTD/svg10.dtd">
<svg version="1.0" xmlns="http://www.w3.org/2000/svg"
 width="512.000000pt" height="512.000000pt" viewBox="0 0 512.000000 512.000000"
 preserveAspectRatio="xMidYMid meet">
<metadata>
Created by potrace 1.11, written by Peter Selinger 2001-2013
</metadata>
<g transform="translate(0.000000,512.000000) scale(0.100000,-0.100000)"
fill="#000000" stroke="none">
<path d="M2566 4402 c-281 -408 -754 -823 -1291 -1132 -130 -75 -403 -211
-532 -265 l-91 -39 55 -60 c31 -34 78 -94 106 -133 28 -40 57 -73 64 -73 21 0
302 143 466 237 81 46 152 81 157 78 6 -3 10 -49 10 -101 l0 -94 1038 2 1037
3 3 133 c1 72 6 132 10 132 4 0 34 -16 67 -37 180 -109 562 -313 586 -313 8 0
30 28 49 62 19 33 64 94 98 135 35 41 62 76 60 78 -1 1 -61 29 -133 60 -603
266 -1111 601 -1483 978 l-94 94 61 85 c34 47 61 91 61 97 0 11 -232 131 -254
131 -6 0 -29 -26 -50 -58z m158 -630 c230 -225 444 -398 709 -572 l129 -85
-480 -3 c-264 -1 -700 -1 -968 0 l-487 3 74 49 c233 155 523 399 725 610 77
80 141 146 143 146 2 0 72 -66 155 -148z"/>
<path d="M1290 1490 l0 -830 155 0 155 0 0 115 0 115 965 0 965 0 0 -105 0
-105 160 0 160 0 -2 818 -3 817 -1277 3 -1278 2 0 -830z m2240 120 l0 -430
-965 0 -965 0 0 430 0 430 965 0 965 0 0 -430z"/>
</g>
</svg>
